<?xml version="1.0" encoding="UTF-8"?>
<svg version="1.1" viewBox="0 0 785.07 415.43" xmlns="http://www.w3.org/2000/svg" xmlns:xlink="http://www.w3.org/1999/xlink">
 <defs>
  <linearGradient id="a" x1="388.84" x2="386.43" y1="571.61" y2="500.9" gradientUnits="userSpaceOnUse">
   <stop stop-color="#e6e6e6" offset="0"/>
   <stop stop-color="#1a1a1a" offset="1"/>
  </linearGradient>
 </defs>
 <g transform="translate(-29.396 -412.22)">
  <path d="m362.96 641.3c-6.5725 1.311-10.903 9.8597-8.4257 15.912 0.47032 1.8292 0.23984 1.747-2.4559 2.39-8.942 3.2015-13.734 17.988-3.8312 22.817 0.44913 0.172 0.90523 0.31735 1.3564 0.43763-1.1049 4.3549-2.3152 8.6514-6.0002 11.456-9.8343 4.3856 1.8581 5.3909 6.7503 2.875 9.3395 0.90489 3.1782 12.189 0.0467 16.707 6.6317 0.37338 13.568-8.4239 21.262-3.8732 6.9859 2.9447 13.963 5.9119 21.321 7.798-1.9256 3.4474-0.91872 8.797 4.1063 3.9111 0.59326-0.50859 1.1543-1.2114 1.5291-1.9632 4.9359 3.4013 5.1886 11.33 4.1972 16.929 4.7631 4.9959 7.1212-5.8927 7.4794-9.6048 0.9284-5.3922 6.0368-8.1 9.0271-11.974 0.14509 1.4705 0.33294 2.9522 0.73741 4.3822 1.5568 8.5934 11.695 16.674 20.115 11.59 7.592-7.4006-5.0944-2.235-8.8937-1.1589-7.9526-1.676-7.9703-10.386-10.676-16.851 0.7323-1.5141 1.0808-3.2379 0.77706-5.345 0.42456-11.279-6.7944-20.975-15.644-27.214-8.0492-4.1662-16.641-7.6565-25.512-9.8673 3.9073-2.3442 16.202-15.283 3.017-7.1192-3.4382 1.3313-7.6894 2.2321-11.666 1.9986-0.31642-0.10909-0.65635-0.20459-0.98748-0.29557-0.47598-4.9349-4.5487-5.549-8.7682-5.9394-0.46123-0.21299-0.94217-0.38152-1.4145-0.53415-3.387-6.1223-3.9948-9.7115 2.5532-17.464z"/>
  <path d="m391.75 491.84c14.208 53.024-47.873 44.729-118.72 63.714s-123.64 58.06-137.85 5.0356 31.711-111.4 102.56-130.38 139.81 8.6101 154.01 61.634z" fill="#1a1a1a" stroke="#333" stroke-width="4"/>
  <path transform="matrix(.96593 -.25882 .29656 1.1068 -261.32 52.899)" d="m608.57 524.51a221.43 51.429 0 1 1 -442.86 0 221.43 51.429 0 1 1 442.86 0z" fill="#1a1a1a" stroke="#333" stroke-width="3.7368"/>
  <path transform="matrix(1.0905 -.29221 .29221 1.0905 -300.59 89.197)" d="m479.29 521.29a93.214 24.643 0 1 1 -186.43 0 93.214 24.643 0 1 1 186.43 0z" fill="#b3b3b3"/>
  <path transform="matrix(.99298 -.25882 .26607 .96593 -249.3 143.27)" d="m479.29 521.29a93.214 24.643 0 1 1 -186.43 0 93.214 24.643 0 1 1 186.43 0z" fill="url(#a)"/>
  <path d="m180.67 572.32c-9.2007-32.087 163.78-78.755 183.01-51.85l253 294.7-303.08-0.0925z" fill="#0062ff" opacity=".5"/>
  <path d="m41.416 800.94c7.1371-4.2843-6.3219-14.859 4.0406-5.1525 8.8278 4.4808 19.395 11.635 16.162 1.9817 2.3597-3.5928 26.933 7.0044 23.234 0.98116-2.4126-8.0555 14.069 0.26269 21.213 2.1896 11.225 2.8055 1.476-9.7266 19.193-4.3598 8.7486 1.339 30.102 8.1672 21.213 0 8.9582-5.1885 29.682 10.685 35.355 0 13.955-5.1848 20.937 8.937 30.541 2.6817 18.463-7.7664 22.392-1.8122 16.936 5.2453 10.913-5.2231 5.3671-10.821 21.213-2.7744 11.592 4.2469 50.113 10.793 32.325-0.39635-9.1209-9.3656 13.422-0.71681 21.213 1.5854 8.0032-4.495 15-5.5078 23.234-0.39635 6.3718-6.1319 15.195 4.1963 21.051-1.245 9.0852-2.6214 16.986 4.4033 27.436-0.34035 12.592-1.0264 19.876 2.2154 28.436-1.6193 9.7688 5.7366 21.47-2.2752 31.163 1.2229 10.197 4.5974 21.376 4.1062 25.254-1.9818 9.8748-1.1907 24.091 6.06 24.244 0 9.2546-0.71247 30.776 9.0024 35.355 1.5854 6.9266-7.4086 25.63 4.8687 34.345 0.79269 3.8687-4.1139 13.629 1.2392 22.223 0.39635 5.0967-8.8452 25.657 6.3846 36.365-0.39635 13.358-1.823 23.24 2.4801 35.355 0 10.471 1.1618 21.401 4.0635 32.325 1.189 12.178-0.42801 24.313 1.0539 36.114 0.14608 14.954-1.1519 32.195-0.25856 48.125-0.54243 11.551 0.22873 24.082-0.47099 34.959 0.39635 16.003 5.3731-15.619 5.6244-27.291 6.5063-26.372 1.9857-53.323 3.8576-80.795 3.4024-23.166 1.646-23.508 0.15262-49.492 2.1977-25.026 1.4133-50.378 1.4951-75.293 2.5009-41.182 1.6132-83.102 0.54074-124.64 0.85024-49.525-3.6e-4 -99.054 3.9e-4 -148.58 0-21.219-1.1443-23.771-1.2609-43.105-1.189-29.866-1.4808-59.849-2.6255-89.73-3.9394-31.065-2.9118-63.409-0.4122-94.449-3.5912-11.243-1.2819-22.515-2.1759-27.274-5.9452l2.0203-1.9818z" fill="#1a1a1a"/>
 </g>
</svg>
